# xmcd
# 
# Track frame offsets:
#     150
#     14870
#     36647
#     66165
#     91027
# 
# Disc length: 1536
# 
# Revision: 2
# Processed by: cddbd v1.5.2PL0 Copyright (c) Steve Scherf et al.
# Submitted via: BonkEnc v1.0.6
# 
DISCID=4105fe05
DTITLE=XL - TAKE 5
DYEAR=1993
DGENRE=Jazz
TTITLE0=TAKE 5(radio version)
TTITLE1=TAKE 5(jungle mix)
TTITLE2=TAKE 5(kool summer mix)
TTITLE3=TAKE 5(gimme five version)
TTITLE4=CAPPUCCINO TIME
EXTD=YEAR: 1993
EXTT0=
EXTT1=
EXTT2=
EXTT3=
EXTT4=
PLAYORDER=
